<?xml version="1.0" encoding="UTF-8"?>
<svg id="Layer_1" data-name="Layer 1" xmlns="http://www.w3.org/2000/svg" viewBox="0 0 141.96 21.5">
  <path d="M65.27,7.03c-.38-.97-1.08-1.78-1.97-2.31-.99-.55-2.12-.82-3.25-.78-.93,0-1.86.19-2.71.58-.82.36-1.57.88-2.21,1.52-.15.15-.28.3-.41.47l-.08-2.21h-4.38v16.89h4.57v-10.16c0-.43.09-.85.27-1.24.18-.38.43-.73.74-1.02.32-.3.71-.54,1.13-.68.46-.16.95-.25,1.43-.24.56-.06,1.13.05,1.63.31.45.25.79.65.98,1.13.23.61.34,1.26.32,1.92v10.01h4.58v-10.35c.04-1.3-.18-2.6-.65-3.81Z"/>
  <path d="M80.53,4.28v2.24c-.33-.45-.7-.86-1.14-1.21-.55-.44-1.17-.79-1.84-1.02-.74-.25-1.52-.38-2.3-.37-1.41-.02-2.78.37-3.97,1.14-1.17.77-2.12,1.84-2.75,3.1-.7,1.4-1.06,2.95-1.03,4.52-.03,1.57.31,3.12,1,4.54.61,1.26,1.55,2.34,2.71,3.13,1.13.76,2.47,1.17,3.83,1.15.77,0,1.53-.11,2.26-.36.68-.23,1.33-.57,1.92-.99.47-.34.88-.75,1.24-1.2v2.23h4.61V4.28h-4.54ZM78.57,16.96c-.68.41-1.46.62-2.26.61h0c-.78.02-1.55-.19-2.21-.61-.65-.42-1.17-1.01-1.5-1.7-.38-.8-.57-1.68-.55-2.57-.02-.87.17-1.74.55-2.52.34-.69.86-1.28,1.5-1.7.66-.42,1.43-.64,2.21-.62.8-.02,1.58.2,2.26.62.65.42,1.16,1.01,1.5,1.7.37.79.55,1.65.53,2.52.02.89-.16,1.77-.53,2.57-.33.7-.84,1.29-1.5,1.7Z"/>
  <g>
    <path d="M6.9,7.86c.74-.44,1.58-.67,2.44-.65.59,0,1.17.1,1.72.3.55.2,1.06.47,1.53.82.45.32.85.71,1.18,1.15l2.63-3.12c-.79-1.07-1.86-1.9-3.09-2.4-1.38-.59-2.87-.89-4.38-.87-1.58-.03-3.14.37-4.52,1.16-1.37.79-2.49,1.94-3.25,3.32C.38,9.01-.02,10.62,0,12.26h.01c-.03,1.64.37,3.26,1.16,4.7.76,1.37,1.88,2.51,3.24,3.3,1.36.79,2.92,1.19,4.49,1.16,1.47,0,2.93-.29,4.28-.89,1.23-.5,2.32-1.3,3.17-2.32l-2.6-3.14c-.37.45-.79.86-1.26,1.2-.9.66-2,1.01-3.12,1-.86.01-1.7-.22-2.42-.68-.71-.45-1.29-1.07-1.7-1.8-.43-.78-.64-1.66-.62-2.55-.02-.91.19-1.8.61-2.6.38-.73.96-1.35,1.66-1.79Z"/>
    <path d="M31.36,4.28c-3.03-1.6-6.66-1.6-9.7,0-1.39.77-2.55,1.89-3.37,3.25-.84,1.43-1.26,3.07-1.23,4.72-.03,1.66.4,3.3,1.23,4.74.81,1.37,1.97,2.49,3.37,3.25,1.49.81,3.17,1.21,4.86,1.18,1.69.03,3.35-.38,4.83-1.18,1.39-.76,2.55-1.88,3.35-3.25.82-1.44,1.24-3.08,1.21-4.74.03-1.66-.39-3.29-1.21-4.72-.81-1.36-1.96-2.49-3.35-3.25ZM30.52,14.85c-.37.74-.93,1.36-1.63,1.8-.71.44-1.53.66-2.36.65h0c-.84.02-1.67-.21-2.39-.65-.7-.44-1.27-1.06-1.65-1.8-.76-1.65-.76-3.54,0-5.19.38-.73.95-1.36,1.65-1.8,1.46-.88,3.28-.89,4.75-.02.7.44,1.27,1.06,1.63,1.8.4.81.6,1.71.59,2.62.01.9-.19,1.78-.59,2.59Z"/>
    <polygon points="121.01 4.28 116.82 15.54 112.76 4.28 107.74 4.28 114.89 21.18 118.4 21.18 125.91 4.28 121.01 4.28"/>
    <path d="M141.95,12.09c.05-1.14-.12-2.28-.52-3.35-.37-.99-.93-1.9-1.66-2.66-.72-.76-1.59-1.36-2.56-1.76-1.02-.42-2.12-.63-3.22-.62-1.19-.02-2.37.2-3.47.64-1.03.42-1.97,1.05-2.75,1.85-.78.81-1.4,1.77-1.81,2.83-.44,1.14-.66,2.35-.64,3.58-.03,1.57.37,3.12,1.16,4.47.77,1.3,1.89,2.36,3.22,3.06,1.49.77,3.15,1.16,4.83,1.12.79,0,1.57-.09,2.33-.28.8-.19,1.58-.48,2.32-.84.75-.37,1.44-.84,2.06-1.39l-2.19-3.03c-.6.51-1.27.92-2,1.21-.66.24-1.36.35-2.06.34-.99.02-1.96-.19-2.85-.62-.78-.39-1.43-.99-1.87-1.74-.25-.44-.42-.9-.53-1.39h12.16l.03-1.41ZM131.64,8.08c.74-.38,1.57-.57,2.4-.54.6,0,1.2.12,1.74.38.51.25.95.62,1.27,1.09.33.46.52,1,.56,1.57v.12h-7.82c.09-.35.19-.69.34-1.02.32-.68.84-1.24,1.5-1.6Z"/>
    <rect x="37.56" y="9.32" width="11.01" height="4.41"/>
    <polygon points="94.83 4.28 94.83 0 90.26 0 90.26 4.28 87.06 4.28 87.06 8.34 90.26 8.34 90.26 21.18 94.83 21.18 94.83 8.34 101.69 8.34 101.69 21.18 106.27 21.18 106.27 4.28 94.83 4.28"/>
  </g>
</svg>