<?xml version="1.0" encoding="UTF-8"?>
<svg id="Layer_1" xmlns="http://www.w3.org/2000/svg" version="1.1" viewBox="0 0 142 21.5">
  <!-- Generator: Adobe Illustrator 29.3.1, SVG Export Plug-In . SVG Version: 2.1.0 Build 151)  -->
  <defs>
    <style>
      .st0 {
        fill: #6659a7;
      }
    </style>
  </defs>
  <path class="st0" d="M65.3,7c-.4-1-1.1-1.8-2-2.3-1-.6-2.1-.8-3.2-.8-.9,0-1.9.2-2.7.6-.8.4-1.6.9-2.2,1.5-.2.2-.3.3-.4.5v-2.2h-4.5v16.9h4.6v-10.2c0-.4,0-.9.3-1.2.2-.4.4-.7.7-1,.3-.3.7-.5,1.1-.7.5-.2,1-.2,1.4-.2.6,0,1.1,0,1.6.3.5.2.8.6,1,1.1.2.6.3,1.3.3,1.9v10h4.6v-10.4c0-1.3-.2-2.6-.7-3.8h0Z"/>
  <path class="st0" d="M80.5,4.3v2.2c-.3-.4-.7-.9-1.1-1.2-.6-.4-1.2-.8-1.8-1-.7-.2-1.5-.4-2.3-.4-1.4,0-2.8.4-4,1.1-1.2.8-2.1,1.8-2.8,3.1-.7,1.4-1.1,2.9-1,4.5,0,1.6.3,3.1,1,4.5.6,1.3,1.6,2.3,2.7,3.1,1.1.8,2.5,1.2,3.8,1.1.8,0,1.5-.1,2.3-.4.7-.2,1.3-.6,1.9-1,.5-.3.9-.8,1.2-1.2v2.2h4.6V4.3h-4.5ZM78.6,17c-.7.4-1.5.6-2.3.6h0c-.8,0-1.6-.2-2.2-.6-.7-.4-1.2-1-1.5-1.7-.4-.8-.6-1.7-.6-2.6,0-.9.2-1.7.6-2.5.3-.7.9-1.3,1.5-1.7.7-.4,1.4-.6,2.2-.6.8,0,1.6.2,2.3.6.7.4,1.2,1,1.5,1.7.4.8.6,1.6.5,2.5,0,.9-.2,1.8-.5,2.6-.3.7-.8,1.3-1.5,1.7Z"/>
  <g>
    <path class="st0" d="M6.9,7.9c.7-.4,1.6-.7,2.4-.7.6,0,1.2,0,1.7.3.6.2,1.1.5,1.5.8.4.3.9.7,1.2,1.1l2.6-3.1c-.8-1.1-1.9-1.9-3.1-2.4-1.4-.6-2.9-.9-4.4-.9-1.6,0-3.1.4-4.5,1.2-1.4.8-2.5,1.9-3.2,3.3C.4,9,0,10.6,0,12.3h0c0,1.6.4,3.3,1.2,4.7.8,1.4,1.9,2.5,3.2,3.3,1.4.8,2.9,1.2,4.5,1.2,1.5,0,2.9-.3,4.3-.9,1.2-.5,2.3-1.3,3.2-2.3l-2.6-3.1c-.4.4-.8.9-1.3,1.2-.9.7-2,1-3.1,1-.9,0-1.7-.2-2.4-.7-.7-.5-1.3-1.1-1.7-1.8-.4-.8-.6-1.7-.6-2.6,0-.9.2-1.8.6-2.6.4-.7,1-1.4,1.7-1.8h0Z"/>
    <path class="st0" d="M31.4,4.3c-3-1.6-6.7-1.6-9.7,0-1.4.8-2.5,1.9-3.4,3.2-.8,1.4-1.3,3.1-1.2,4.7,0,1.7.4,3.3,1.2,4.7.8,1.4,2,2.5,3.4,3.2,1.5.8,3.2,1.2,4.9,1.2,1.7,0,3.4-.4,4.8-1.2,1.4-.8,2.6-1.9,3.4-3.2.8-1.4,1.2-3.1,1.2-4.7,0-1.7-.4-3.3-1.2-4.7-.8-1.4-2-2.5-3.4-3.2h0ZM30.5,14.9c-.4.7-.9,1.4-1.6,1.8-.7.4-1.5.7-2.4.6h0c-.8,0-1.7-.2-2.4-.6-.7-.4-1.3-1.1-1.6-1.8-.8-1.6-.8-3.5,0-5.2.4-.7,1-1.4,1.6-1.8,1.5-.9,3.3-.9,4.8,0,.7.4,1.3,1.1,1.6,1.8.4.8.6,1.7.6,2.6,0,.9-.2,1.8-.6,2.6Z"/>
    <polygon class="st0" points="121 4.3 116.8 15.5 112.8 4.3 107.7 4.3 114.9 21.2 118.4 21.2 125.9 4.3 121 4.3"/>
    <path class="st0" d="M141.9,12.1c0-1.1-.1-2.3-.5-3.4-.4-1-.9-1.9-1.7-2.7-.7-.8-1.6-1.4-2.6-1.8-1-.4-2.1-.6-3.2-.6-1.2,0-2.4.2-3.5.6-1,.4-2,1-2.8,1.8-.8.8-1.4,1.8-1.8,2.8-.4,1.1-.7,2.3-.6,3.6,0,1.6.4,3.1,1.2,4.5.8,1.3,1.9,2.4,3.2,3.1,1.5.8,3.1,1.2,4.8,1.1.8,0,1.6,0,2.3-.3.8-.2,1.6-.5,2.3-.8.8-.4,1.4-.8,2.1-1.4l-2.2-3c-.6.5-1.3.9-2,1.2-.7.2-1.4.4-2.1.3-1,0-2-.2-2.9-.6-.8-.4-1.4-1-1.9-1.7-.2-.4-.4-.9-.5-1.4h12.2v-1.4s0,0,0,0ZM131.6,8.1c.7-.4,1.6-.6,2.4-.5.6,0,1.2.1,1.7.4.5.2.9.6,1.3,1.1.3.5.5,1,.6,1.6h0c0,.1-7.8.1-7.8.1,0-.4.2-.7.3-1,.3-.7.8-1.2,1.5-1.6h0Z"/>
    <rect class="st0" x="37.6" y="9.3" width="11" height="4.4"/>
    <polygon class="st0" points="94.8 4.3 94.8 0 90.3 0 90.3 4.3 87.1 4.3 87.1 8.3 90.3 8.3 90.3 21.2 94.8 21.2 94.8 8.3 101.7 8.3 101.7 21.2 106.3 21.2 106.3 4.3 94.8 4.3"/>
  </g>
</svg>