<?xml version="1.0" encoding="UTF-8"?>
<svg id="Layer_1" data-name="Layer 1" xmlns="http://www.w3.org/2000/svg" viewBox="0 0 48.57 18.36">
  <defs>
    <style>
      .cls-1 {
        fill: #fff;
      }
    </style>
  </defs>
  <path class="cls-1" d="M6.9,4.78c.74-.44,1.58-.67,2.44-.65.59,0,1.17.1,1.72.3.55.2,1.06.47,1.53.82.45.32.85.71,1.18,1.15l2.63-3.12c-.79-1.07-1.86-1.9-3.09-2.4C11.93.28,10.44-.02,8.94,0c-1.58-.03-3.14.37-4.52,1.16-1.37.79-2.49,1.94-3.25,3.32C.38,5.93-.02,7.54,0,9.18h.01c-.03,1.64.37,3.26,1.16,4.7.76,1.37,1.88,2.51,3.24,3.3,1.36.79,2.92,1.19,4.49,1.16,1.47,0,2.93-.29,4.28-.89,1.23-.5,2.32-1.3,3.17-2.32l-2.6-3.14c-.37.45-.79.86-1.26,1.2-.9.66-2,1.01-3.12,1-.86.01-1.7-.22-2.42-.68-.71-.45-1.29-1.07-1.7-1.8-.43-.78-.64-1.66-.62-2.55-.02-.91.19-1.8.61-2.6.38-.73.96-1.35,1.66-1.79Z"/>
  <path class="cls-1" d="M31.36,1.2c-3.03-1.6-6.66-1.6-9.7,0-1.39.77-2.55,1.89-3.37,3.25-.84,1.43-1.26,3.07-1.23,4.72-.03,1.66.4,3.3,1.23,4.74.81,1.37,1.97,2.49,3.37,3.25,1.49.81,3.17,1.21,4.86,1.18,1.69.03,3.35-.38,4.83-1.18,1.39-.76,2.55-1.88,3.35-3.25.82-1.44,1.24-3.08,1.21-4.74.03-1.66-.39-3.29-1.21-4.72-.81-1.36-1.96-2.49-3.35-3.25ZM30.52,11.77c-.37.74-.93,1.36-1.63,1.8-.71.44-1.53.66-2.36.65h0c-.84.02-1.67-.21-2.39-.65-.7-.44-1.27-1.06-1.65-1.8-.76-1.65-.76-3.54,0-5.19.38-.73.95-1.36,1.65-1.8,1.46-.88,3.28-.89,4.75-.02.7.44,1.27,1.06,1.63,1.8.4.81.6,1.71.59,2.62.01.9-.19,1.78-.59,2.59Z"/>
  <rect class="cls-1" x="37.56" y="6.24" width="11.01" height="4.41"/>
</svg>